<svg width="43" height="55" viewBox="0 0 43 55" fill="none" xmlns="http://www.w3.org/2000/svg">
<path d="M6.936 3.432V11.04H8.028V14.256H6.996V12H1.104V14.256H0.072V11.04H0.732C1.02 10.544 1.292 9.988 1.548 9.372C1.812 8.756 2.044 8.112 2.244 7.44C2.444 6.76 2.608 6.08 2.736 5.4C2.864 4.72 2.944 4.064 2.976 3.432H6.936ZM3.924 4.404C3.892 4.868 3.812 5.392 3.684 5.976C3.564 6.56 3.408 7.16 3.216 7.776C3.032 8.384 2.824 8.972 2.592 9.54C2.368 10.108 2.128 10.608 1.872 11.04H5.868V4.404H3.924ZM11.8009 5.448C12.3529 5.448 12.8249 5.568 13.2169 5.808C13.6169 6.048 13.9209 6.388 14.1289 6.828C14.3449 7.26 14.4529 7.768 14.4529 8.352V8.988H10.0489C10.0649 9.716 10.2489 10.272 10.6009 10.656C10.9609 11.032 11.4609 11.22 12.1009 11.22C12.5089 11.22 12.8689 11.184 13.1809 11.112C13.5009 11.032 13.8289 10.92 14.1649 10.776V11.7C13.8369 11.844 13.5129 11.948 13.1929 12.012C12.8729 12.084 12.4929 12.12 12.0529 12.12C11.4449 12.12 10.9049 11.996 10.4329 11.748C9.96888 11.5 9.60488 11.132 9.34088 10.644C9.08488 10.148 8.95688 9.544 8.95688 8.832C8.95688 8.128 9.07288 7.524 9.30488 7.02C9.54488 6.516 9.87688 6.128 10.3009 5.856C10.7329 5.584 11.2329 5.448 11.8009 5.448ZM11.7889 6.312C11.2849 6.312 10.8849 6.476 10.5889 6.804C10.3009 7.124 10.1289 7.572 10.0729 8.148H13.3489C13.3489 7.78 13.2929 7.46 13.1809 7.188C13.0689 6.916 12.8969 6.704 12.6649 6.552C12.4409 6.392 12.1489 6.312 11.7889 6.312ZM17.1463 5.568V8.244H20.6383V5.568H21.6943V12H20.6383V9.132H17.1463V12H16.0903V5.568H17.1463ZM26.6949 8.208C27.2549 8.208 27.7189 8.276 28.0869 8.412C28.4549 8.548 28.7309 8.752 28.9149 9.024C29.1069 9.288 29.2029 9.624 29.2029 10.032C29.2029 10.432 29.1109 10.78 28.9269 11.076C28.7509 11.372 28.4749 11.6 28.0989 11.76C27.7229 11.92 27.2389 12 26.6469 12H23.7309V5.568H24.7869V8.208H26.6949ZM28.1469 10.092C28.1469 9.7 28.0069 9.436 27.7269 9.3C27.4549 9.156 27.0709 9.084 26.5749 9.084H24.7869V11.148H26.5989C27.0469 11.148 27.4149 11.068 27.7029 10.908C27.9989 10.748 28.1469 10.476 28.1469 10.092ZM34.7799 5.568V6.456H31.9119V12H30.8559V5.568H34.7799ZM37.0433 9.492C37.0433 9.564 37.0393 9.668 37.0313 9.804C37.0313 9.932 37.0273 10.072 37.0193 10.224C37.0113 10.368 37.0033 10.508 36.9953 10.644C36.9873 10.772 36.9793 10.876 36.9713 10.956L40.4153 5.568H41.7113V12H40.7273V8.208C40.7273 8.08 40.7273 7.912 40.7273 7.704C40.7353 7.496 40.7433 7.292 40.7513 7.092C40.7593 6.884 40.7673 6.728 40.7753 6.624L37.3553 12H36.0473V5.568H37.0433V9.492Z" fill="black"/>
<path d="M12.6 20.12C12.032 20.12 11.524 20.004 11.076 19.772C10.636 19.54 10.288 19.18 10.032 18.692C9.784 18.204 9.66 17.58 9.66 16.82C9.66 16.028 9.792 15.384 10.056 14.888C10.32 14.392 10.676 14.028 11.124 13.796C11.58 13.564 12.096 13.448 12.672 13.448C13 13.448 13.316 13.484 13.62 13.556C13.924 13.62 14.172 13.7 14.364 13.796L14.04 14.672C13.848 14.6 13.624 14.532 13.368 14.468C13.112 14.404 12.872 14.372 12.648 14.372C12.216 14.372 11.86 14.464 11.58 14.648C11.3 14.832 11.092 15.104 10.956 15.464C10.82 15.824 10.752 16.272 10.752 16.808C10.752 17.32 10.82 17.756 10.956 18.116C11.092 18.476 11.296 18.748 11.568 18.932C11.84 19.116 12.18 19.208 12.588 19.208C12.94 19.208 13.248 19.172 13.512 19.1C13.784 19.028 14.032 18.94 14.256 18.836V19.772C14.04 19.884 13.8 19.968 13.536 20.024C13.28 20.088 12.968 20.12 12.6 20.12ZM14.46 22.456H12.36V28H11.316V22.456H9.24V21.568H14.46V22.456ZM12.984 32.208C13.544 32.208 14.008 32.276 14.376 32.412C14.744 32.548 15.02 32.752 15.204 33.024C15.396 33.288 15.492 33.624 15.492 34.032C15.492 34.432 15.4 34.78 15.216 35.076C15.04 35.372 14.764 35.6 14.388 35.76C14.012 35.92 13.528 36 12.936 36H10.02V29.568H11.076V32.208H12.984ZM14.436 34.092C14.436 33.7 14.296 33.436 14.016 33.3C13.744 33.156 13.36 33.084 12.864 33.084H11.076V35.148H12.888C13.336 35.148 13.704 35.068 13.992 34.908C14.288 34.748 14.436 34.476 14.436 34.092Z" fill="black"/>
</svg>
